<svg xmlns="http://www.w3.org/2000/svg" width="16" height="16" fill="#38bdf8" viewBox="0 0 16 16">
  <path d="M11.5 6.027a.5.5 0 1 1-1 0 .5.5 0 0 1 1 0zm-1.5 1.5a.5.5 0 1 0 0-1 .5.5 0 0 0 0 1zm2.5-.5a.5.5 0 1 1-1 0 .5.5 0 0 1 1 0zm-1.5 1.5a.5.5 0 1 0 0-1 .5.5 0 0 0 0 1zm-6.5-3h1v1h1v1h-1v1h-1v-1h-1v-1h1v-1zM7.05 4.5H5a.5.5 0 0 0-.5.5v7a.5.5 0 0 0 .5.5H6l.5.5h3l.5-.5H11a.5.5 0 0 0 .5-.5V5a.5.5 0 0 0-.5-.5H7.05z M0 7.5A7.5 7.5 0 0 1 7.5 0h1A7.5 7.5 0 0 1 16 7.5v1A7.5 7.5 0 0 1 8.5 16h-1A7.5 7.5 0 0 1 0 8.5v-1z"/>
</svg>
