<svg xmlns="http://www.w3.org/2000/svg" fill="#F39C12" viewBox="0 0 16 16">
  <path d="M4 .5a.5.5 0 0 1 .5.5V2h7V1a.5.5 0 0 1 1 0V2h.5A1.5 1.5 0 0 1 15 3.5v10A1.5 1.5 0 0 1 13.5 15h-11A1.5 1.5 0 0 1 1 13.5v-10A1.5 1.5 0 0 1 2.5 2H3V1a.5.5 0 0 1 1 0v1zM2 6v7.5a.5.5 0 0 0 .5.5h11a.5.5 0 0 0 .5-.5V6H2z"/>
  <path d="M8.5 7.5a.5.5 0 0 1 .5.5v1.293l.646-.647a.5.5 0 0 1 .708.708L9.707 10l.647.646a.5.5 0 0 1-.708.708L9 10.707V12a.5.5 0 0 1-1 0v-1.293l-.646.647a.5.5 0 1 1-.708-.708L7.293 10l-.647-.646a.5.5 0 0 1 .708-.708L8 9.293V8a.5.5 0 0 1 .5-.5z"/>
</svg>
